<?xml version="1.0" standalone="no"?>
<!DOCTYPE svg PUBLIC "-//W3C//DTD SVG 20010904//EN"
 "http://www.w3.org/TR/2001/REC-SVG-20010904/DTD/svg10.dtd">
<svg version="1.0" xmlns="http://www.w3.org/2000/svg"
 width="300.000000pt" height="300.000000pt" viewBox="0 0 300.000000 300.000000"
 preserveAspectRatio="xMidYMid meet">
<metadata>
Created by potrace 1.10, written by Peter Selinger 2001-2011
</metadata>
<g transform="translate(0.000000,300.000000) scale(0.100000,-0.100000)"
fill="#000000" stroke="none">
<path d="M1483 2869 c3 -74 2 -294 -2 -489 l-6 -355 -50 -52 c-27 -28 -59 -63
-70 -77 -46 -60 -88 -106 -95 -106 -4 0 -38 28 -75 63 -37 34 -80 70 -96 80
-16 11 -29 23 -29 29 0 5 -4 7 -9 4 -10 -7 -30 14 -28 29 0 6 -8 12 -19 14
-10 2 -53 34 -94 70 -70 63 -129 108 -90 69 89 -89 173 -157 188 -152 13 4 14
3 4 -4 -10 -7 -6 -15 20 -37 73 -60 218 -208 224 -228 3 -12 -57 40 -138 118
-162 159 -218 211 -218 204 0 -3 98 -99 218 -214 119 -115 199 -189 177 -164
l-40 44 42 -39 c23 -21 41 -44 40 -50 -1 -6 4 -10 11 -8 8 1 11 -1 8 -6 -3 -5
30 -43 73 -86 l78 -77 64 69 c104 112 193 213 203 231 5 9 20 28 34 44 24 25
24 27 6 27 -11 0 -25 -5 -30 -10 -15 -15 -74 7 -67 26 3 8 -5 17 -21 24 -14 5
-26 16 -26 25 0 8 -9 15 -19 15 -11 0 -23 5 -26 10 -3 6 3 10 14 10 12 0 21 5
21 10 0 6 -13 10 -30 10 -16 0 -30 4 -30 10 0 5 -5 9 -12 7 -6 -1 -17 9 -25
23 -7 14 -13 21 -13 16 0 -5 -9 -1 -20 9 -14 13 -20 14 -20 5 0 -7 57 -69 127
-136 115 -112 125 -124 112 -141 -19 -25 -87 -99 -131 -145 -20 -21 -52 -56
-71 -78 l-34 -40 -7 61 c-3 34 -7 128 -8 208 l-1 146 -8 -152 c-7 -151 -11
-173 -30 -173 -11 0 -128 121 -164 169 -12 17 -25 28 -28 24 -4 -3 -7 -3 -7 1
0 4 53 64 119 134 l118 127 4 489 c3 406 2 490 -10 494 -11 4 -12 -19 -8 -129z"/>
<path d="M1606 2525 l81 -74 282 -5 c156 -2 280 -2 278 1 -8 7 -89 11 -317 14
-113 1 -218 6 -235 10 -16 3 -22 7 -12 8 31 2 13 26 -21 29 -18 2 -32 7 -32
13 0 5 85 9 207 9 113 0 204 2 201 5 -3 3 -103 8 -223 11 -120 3 -226 9 -234
14 -12 7 -5 10 24 11 l40 1 -55 13 c-30 8 -57 14 -60 14 -3 0 31 -33 76 -74z"/>
<path d="M1717 2418 c11 -12 57 -15 293 -16 173 -1 279 2 275 7 -3 6 -116 10
-267 11 -144 0 -273 3 -287 7 -22 5 -24 4 -14 -9z"/>
<path d="M1765 2377 c11 -9 39 -17 64 -17 47 0 52 6 11 14 -103 20 -97 20 -75
3z"/>
<path d="M1883 2373 c3 -5 106 -10 239 -12 128 -1 237 -6 242 -12 6 -5 8 -9 5
-10 -2 0 -13 -3 -24 -6 -40 -11 -489 -5 -520 7 -29 11 -29 11 -10 -9 17 -20
29 -21 275 -21 238 0 258 1 274 19 33 37 3 43 -250 48 -148 4 -235 2 -231 -4z"/>
<path d="M547 2267 c-60 -78 -101 -147 -88 -147 6 0 11 5 11 10 0 6 42 11 103
12 l102 2 -85 3 c-47 2 -89 8 -94 13 -7 7 -5 10 3 10 7 0 9 5 6 10 -4 6 16 11
52 12 57 2 57 2 11 5 -27 2 -48 8 -48 13 0 13 34 30 62 31 23 1 23 1 -2 8 -24
7 -24 8 -4 14 28 10 62 -2 42 -14 -10 -7 -10 -9 2 -9 17 0 100 -74 100 -90 0
-5 5 -10 10 -10 15 0 72 -60 75 -79 1 -9 -4 -24 -13 -33 -13 -16 -37 -18 -208
-18 -106 0 -195 -3 -197 -7 -3 -5 77 -7 176 -6 201 3 217 1 193 -22 -22 -23
-376 -27 -369 -5 3 9 -2 7 -12 -5 -16 -20 -14 -20 182 -25 l197 -5 13 -25 c9
-17 13 -87 14 -230 1 -157 3 -196 11 -165 5 22 11 100 11 172 1 83 6 133 12
133 11 0 55 -43 258 -250 61 -63 138 -138 169 -167 51 -47 56 -54 42 -68 -9
-8 -19 -14 -22 -12 -4 2 -19 9 -34 16 -25 13 -29 11 -70 -28 -366 -353 -353
-341 -365 -324 -12 16 -13 16 -13 0 0 -10 -10 -22 -22 -27 -13 -5 -17 -9 -10
-9 20 -1 14 -32 -7 -38 -11 -3 -18 -10 -15 -17 2 -6 -13 -19 -33 -28 -21 -9
-31 -17 -22 -17 20 -1 -73 -101 -94 -101 -15 0 -46 30 -31 30 5 0 -5 13 -23
29 -24 21 -29 31 -21 39 9 9 8 12 -4 12 -8 0 -21 7 -28 15 -9 10 -9 15 -1 15
6 0 11 5 11 10 0 6 -6 10 -14 10 -8 0 -20 16 -26 35 -6 19 -19 39 -28 44 -16
9 -16 10 0 16 10 4 15 11 12 16 -3 5 -9 7 -14 4 -5 -3 -14 4 -20 15 -10 19 -8
20 67 22 l78 2 -74 3 c-56 3 -78 8 -87 21 -7 10 -9 21 -4 26 5 5 3 15 -6 23
-20 20 -18 31 9 36 18 4 17 5 -7 6 -20 1 -27 5 -23 16 4 8 1 18 -6 22 -7 5 1
10 23 14 l35 6 -34 2 c-25 1 -32 5 -27 16 3 8 1 15 -4 15 -5 0 -7 7 -4 15 4 8
1 22 -6 30 -13 15 -2 20 65 28 17 2 8 5 -22 6 -40 1 -53 5 -57 19 -3 9 -3 -18
0 -60 16 -243 159 -525 348 -686 164 -139 287 -215 422 -260 129 -43 161 -48
94 -15 -34 18 -58 24 -62 18 -5 -6 -8 -4 -8 4 0 8 -3 11 -6 8 -4 -3 -16 -1
-28 5 -11 7 -27 13 -34 14 -24 4 -122 57 -122 66 0 4 -6 8 -13 8 -7 0 -23 9
-35 20 -12 11 -24 20 -28 20 -4 0 -19 14 -34 30 -15 17 -32 30 -38 28 -5 -2
-25 11 -44 28 -19 18 -45 37 -56 43 -18 10 -21 18 -17 43 6 31 5 31 -13 15
-21 -19 -34 -13 -25 11 5 12 2 14 -13 8 -10 -3 17 28 62 71 44 43 190 183 323
312 l243 235 19 -25 19 -24 20 24 c15 18 23 21 33 12 11 -8 25 1 65 39 54 52
78 56 86 16 3 -11 7 -68 10 -125 l4 -104 -66 64 c-54 53 -60 57 -33 21 18 -23
41 -46 50 -51 28 -16 46 -58 32 -75 -10 -12 -8 -21 10 -45 13 -17 26 -31 30
-31 4 0 15 -3 23 -6 12 -5 15 -2 10 10 -4 10 -1 16 7 16 8 0 45 29 82 65 38
36 66 65 63 65 -4 0 8 13 26 29 31 27 33 28 55 12 12 -9 23 -21 23 -28 0 -7 6
-10 13 -7 7 2 19 -7 27 -21 7 -14 18 -25 24 -25 6 0 16 -10 21 -22 6 -13 17
-23 25 -23 8 -1 14 -6 12 -13 -1 -7 4 -11 10 -10 7 2 12 -3 10 -10 -1 -8 1
-11 6 -8 4 3 41 -29 81 -70 40 -41 75 -74 78 -74 10 0 91 -89 85 -94 -3 -3 1
-6 9 -6 8 0 36 -22 62 -50 26 -27 52 -50 57 -50 6 0 10 -7 10 -15 0 -8 4 -15
9 -15 5 0 11 -9 14 -20 5 -19 -34 -57 -113 -110 -12 -8 -32 -22 -44 -31 -44
-33 -64 -40 -78 -26 -7 6 -31 27 -53 46 -22 19 -132 123 -245 232 -113 109
-218 208 -235 221 l-30 23 23 -32 c13 -18 79 -89 148 -158 l125 -126 -151
-146 c-83 -80 -148 -148 -145 -151 2 -3 37 26 77 65 40 38 96 90 123 115 28
24 63 56 80 71 16 15 34 27 39 27 8 0 76 -58 199 -172 l61 -56 86 59 c47 32
106 78 132 101 l47 43 -175 165 c-96 91 -240 231 -321 312 l-146 146 -121
-114 -121 -114 -3 183 -2 182 -217 217 c-119 119 -220 215 -224 212 -4 -2 -10
5 -14 16 -3 11 -11 20 -16 20 -11 0 -4 -15 19 -42 8 -10 19 -15 23 -12 5 3 9
-2 9 -10 0 -9 5 -16 11 -16 5 0 7 -5 3 -12 -4 -7 -3 -8 4 -4 7 4 12 3 12 -2 0
-9 161 -182 273 -294 26 -26 47 -50 47 -53 0 -9 -93 -95 -102 -95 -4 0 -29 24
-56 53 -27 28 -109 117 -182 197 -74 80 -178 190 -232 246 -54 56 -98 104 -98
107 0 3 25 29 55 59 l55 53 -137 138 c-75 75 -137 137 -137 137 -1 0 -23 -28
-49 -63z"/>
<path d="M2390 2313 c0 -5 -196 -205 -435 -447 -240 -241 -433 -441 -430 -445
4 -3 13 3 21 14 14 18 18 16 96 -60 46 -44 84 -83 86 -86 1 -4 11 -5 20 -2 12
3 70 -49 187 -167 94 -93 175 -168 182 -166 12 5 46 -27 38 -36 -3 -2 54 -60
126 -128 71 -67 134 -119 138 -114 82 100 179 246 129 196 -18 -18 -229 -16
-273 2 -19 8 -35 18 -35 21 0 3 75 5 167 5 146 -2 167 0 176 15 8 14 6 15 -11
6 -26 -14 -301 -15 -336 -1 -62 23 -22 30 174 30 138 0 200 3 200 11 0 8 -54
9 -185 5 -102 -4 -185 -3 -185 2 0 27 30 32 207 32 101 0 183 3 183 8 0 4 -77
7 -170 7 -94 0 -170 3 -170 6 0 22 42 30 191 35 90 4 166 8 168 10 2 2 -67 4
-154 4 -152 0 -158 1 -142 18 15 15 38 17 162 17 90 0 145 4 145 10 0 6 -50 9
-137 7 -122 -3 -135 -2 -123 12 9 11 30 16 73 16 71 0 72 10 1 12 l-48 1 28
24 c16 13 25 27 22 31 -4 3 -62 -50 -130 -118 -100 -103 -184 -182 -154 -146
4 5 -7 20 -25 35 -17 14 -67 61 -110 103 -43 43 -81 78 -84 78 -3 0 -43 38
-90 85 -79 79 -103 97 -103 77 0 -5 35 -42 78 -82 42 -41 167 -163 278 -272
156 -154 205 -197 219 -192 16 6 15 9 -6 25 -13 10 -29 19 -36 19 -6 0 -15 5
-18 10 -4 6 37 10 117 10 l123 -1 -26 -23 c-15 -13 -30 -32 -33 -43 -4 -11
-16 -25 -29 -30 -24 -11 -67 0 -67 17 0 5 -8 10 -17 10 -13 0 -9 -8 15 -33 18
-18 32 -37 32 -41 0 -14 -129 104 -263 241 -71 73 -134 130 -140 126 -6 -4 -7
-1 -2 7 6 9 4 11 -5 5 -9 -6 -11 -4 -5 5 6 9 4 11 -5 5 -9 -6 -11 -4 -5 5 6 9
4 11 -5 5 -8 -5 -11 -4 -7 2 8 12 -17 36 -26 26 -4 -3 -7 0 -8 8 0 8 -38 46
-83 84 -46 39 -91 82 -100 98 -10 15 -23 27 -30 27 -8 0 -16 7 -20 15 -3 8
-11 15 -18 15 -21 0 -68 53 -68 77 0 18 73 97 288 311 l287 287 3 -79 3 -80
-41 -38 c-61 -58 -114 -118 -102 -118 5 0 41 29 80 65 38 36 75 65 81 65 6 0
11 -13 11 -29 0 -17 4 -33 10 -36 17 -11 440 -11 440 0 0 6 -54 10 -143 9
-185 -1 -289 8 -294 23 -4 10 46 13 210 15 l214 3 -24 65 c-19 56 -24 41 -7
-22 7 -24 -10 -26 -216 -30 l-185 -3 -3 117 -3 117 89 90 c49 50 94 91 100 91
6 0 15 -8 21 -17 5 -10 12 -15 15 -13 7 7 -43 70 -55 70 -5 0 -9 -3 -9 -7z
m-320 -1299 c30 -31 46 -52 35 -46 -27 14 -107 102 -93 102 2 0 28 -25 58 -56z"/>
<path d="M1872 2284 c15 -18 31 -19 229 -16 116 1 210 5 207 7 -2 2 -96 5
-208 6 -119 0 -213 6 -225 12 -19 9 -19 9 -3 -9z"/>
<path d="M1919 2237 c12 -15 34 -17 177 -15 105 1 167 5 173 12 7 8 -19 9 -92
5 -122 -8 -225 -5 -252 6 -18 8 -18 7 -6 -8z"/>
<path d="M1960 2203 c0 -23 29 -28 140 -22 l115 5 -115 2 c-75 1 -120 6 -128
14 -8 8 -12 8 -12 1z"/>
<path d="M1784 2148 c-3 -4 41 -8 98 -7 79 1 96 3 73 10 -36 11 -164 9 -171
-3z"/>
<path d="M2000 2148 c0 -10 -3 -9 88 -11 41 -1 77 3 82 8 5 7 -23 10 -81 10
-49 0 -89 -3 -89 -7z"/>
<path d="M2000 1953 l-175 -178 178 175 c97 96 177 176 177 177 0 8 -18 -10
-180 -174z"/>
<path d="M2047 2098 c15 -17 32 -18 66 -3 30 13 19 20 -32 20 -46 0 -49 -1
-34 -17z"/>
<path d="M435 2100 c-8 -12 211 -12 240 0 13 5 -27 9 -107 9 -75 1 -129 -3
-133 -9z"/>
<path d="M1833 2103 c26 -2 68 -2 95 0 26 2 4 3 -48 3 -52 0 -74 -1 -47 -3z"/>
<path d="M416 2064 c-3 -9 -6 -18 -6 -20 0 -2 69 -4 153 -4 114 1 147 3 133
11 -12 7 -64 10 -142 7 -67 -2 -121 -1 -118 3 2 4 0 10 -5 13 -5 3 -12 -1 -15
-10z"/>
<path d="M1821 2066 c2 -2 44 -7 93 -11 64 -5 87 -4 82 4 -4 7 -41 11 -93 11
-48 0 -84 -2 -82 -4z"/>
<path d="M2036 2033 c-4 -5 -87 -10 -184 -13 l-177 -5 173 -5 c152 -4 175 -3
195 12 12 10 17 18 11 18 -6 0 -14 -3 -18 -7z"/>
<path d="M1952 1983 c-12 -2 -20 -8 -17 -13 3 -5 13 -6 23 -3 15 6 15 5 3 -10
-8 -10 -28 -17 -47 -17 -19 0 -34 -4 -34 -10 0 -25 57 -9 90 25 33 34 31 37
-18 28z"/>
<path d="M1778 1973 c29 -2 74 -2 100 0 26 2 2 3 -53 3 -55 0 -76 -1 -47 -3z"/>
<path d="M357 1916 c-4 -10 -7 -20 -7 -22 0 -2 81 -4 180 -4 113 0 180 4 180
10 0 6 -63 10 -169 10 -123 0 -170 3 -173 12 -3 7 -7 5 -11 -6z"/>
<path d="M1870 1897 c-34 -8 -39 -12 -22 -15 18 -3 21 -6 12 -17 -6 -8 -17
-12 -24 -9 -6 2 -20 -2 -30 -9 -18 -13 -18 -14 7 -19 21 -4 34 4 68 39 24 23
41 43 39 42 -3 -1 -25 -6 -50 -12z"/>
<path d="M335 1853 c-3 -10 41 -13 200 -13 124 0 205 4 205 10 0 15 -399 18
-405 3z"/>
<path d="M324 1811 c-14 -15 17 -17 194 -14 264 5 270 9 19 14 -115 2 -211 2
-213 0z"/>
<path d="M2350 1695 l95 -95 133 -3 132 -2 0 35 0 35 -155 -2 c-140 -2 -156 0
-177 18 -23 19 -22 19 150 16 162 -2 172 -1 172 17 0 15 -3 16 -14 6 -11 -8
-58 -10 -175 -6 -162 6 -191 11 -191 27 0 6 75 9 185 7 127 -2 185 0 185 8 0
7 -56 10 -181 7 -145 -2 -186 0 -209 12 -16 8 -33 15 -37 15 -4 0 35 -43 87
-95z m347 -65 c-1 -20 -7 -21 -124 -19 -104 1 -127 4 -146 20 -22 18 -20 18
125 19 142 0 147 -1 145 -20z"/>
<path d="M2231 1629 l-1 -156 122 -122 c68 -66 125 -121 128 -121 3 0 23 14
44 31 35 30 43 32 107 30 38 -1 69 2 69 7 0 12 -150 4 -166 -9 -11 -9 -27 1
-75 44 -34 31 -67 53 -75 50 -14 -5 -114 88 -114 108 0 6 23 -11 51 -40 27
-28 55 -51 61 -51 6 0 -16 29 -50 64 -33 35 -63 74 -66 87 -14 63 -22 179 -12
189 7 7 6 10 -1 10 -6 0 -14 8 -16 18 -3 9 -5 -53 -6 -139z"/>
<path d="M313 1757 c-3 -5 -3 -9 -2 -10 2 -1 103 0 224 3 l220 5 -145 7 c-173
8 -290 6 -297 -5z"/>
<path d="M304 1709 c-3 -5 90 -9 223 -9 154 0 223 4 213 10 -19 13 -428 12
-436 -1z"/>
<path d="M300 1663 c0 -10 52 -13 225 -13 138 0 225 4 225 10 0 5 -89 10 -225
12 -175 2 -225 0 -225 -9z"/>
<path d="M290 1610 c0 -13 426 -14 435 -1 3 6 -82 10 -215 11 -145 0 -220 -3
-220 -10z"/>
<path d="M290 1563 c0 -17 14 -18 175 -15 96 2 175 6 175 10 0 4 -70 7 -156 7
-85 -1 -158 3 -160 7 -10 15 -34 8 -34 -9z"/>
<path d="M2484 1561 c17 -19 29 -21 123 -21 100 0 103 1 102 23 0 12 -3 16 -6
10 -6 -17 -185 -18 -216 -2 -22 12 -22 12 -3 -10z"/>
<path d="M290 1510 c0 -16 6 -20 33 -19 31 0 31 1 7 10 -20 8 -22 12 -10 19
12 8 10 10 -7 10 -16 0 -23 -6 -23 -20z"/>
<path d="M2535 1509 c15 -15 31 -19 92 -19 40 0 73 -2 73 -4 0 -36 -58 -49
-96 -21 -28 21 -40 18 -19 -5 13 -15 31 -20 67 -20 28 0 48 -4 48 -11 0 -7
-14 -10 -35 -7 -22 2 -34 0 -32 -6 2 -6 17 -10 33 -9 16 1 22 -1 12 -3 -9 -3
-19 -12 -22 -21 -5 -11 -2 -14 10 -9 8 3 22 6 30 6 11 0 14 17 14 77 0 65 -2
74 -13 59 -10 -14 -25 -16 -77 -14 -38 2 -64 7 -63 13 1 6 -8 12 -19 12 -19 2
-19 1 -3 -18z"/>
<path d="M290 1460 c0 -19 6 -20 93 -18 l92 2 -80 5 c-56 4 -79 10 -77 19 1 6
-5 12 -13 12 -8 0 -15 -9 -15 -20z"/>
<path d="M290 1410 c0 -19 6 -20 83 -18 79 2 80 2 17 5 -43 3 -68 9 -73 19
-12 20 -27 17 -27 -6z"/>
<path d="M474 1366 l-71 -63 145 -147 c147 -149 243 -231 147 -126 -95 104
-150 164 -197 211 -27 27 -48 54 -48 62 0 13 13 29 74 95 45 48 29 38 -50 -32z"/>
<path d="M2177 1390 c-21 -21 -37 -42 -37 -46 0 -8 73 55 83 73 16 27 -11 12
-46 -27z"/>
<path d="M1005 1073 c-110 -107 -186 -186 -170 -174 40 30 386 371 375 371 -3
-1 -95 -89 -205 -197z"/>
<path d="M2561 1266 c7 -7 129 -10 136 -3 3 4 -27 7 -67 7 -40 0 -71 -2 -69
-4z"/>
<path d="M2548 1213 c29 -2 74 -2 100 0 26 2 2 3 -53 3 -55 0 -76 -1 -47 -3z"/>
<path d="M2600 1170 l-65 -7 73 -1 c42 -1 72 2 72 8 0 6 -3 9 -7 8 -5 -1 -37
-4 -73 -8z"/>
<path d="M1230 1111 c0 -10 96 -101 106 -101 8 0 -35 50 -75 88 -26 24 -31 26
-31 13z"/>
<path d="M1010 1027 c-36 -34 -95 -87 -130 -117 -139 -120 -220 -192 -220
-198 0 -3 13 7 29 22 18 17 34 25 42 21 8 -5 10 -4 5 3 -6 11 71 69 86 64 4
-1 5 5 2 13 -15 39 29 -1 208 -187 350 -365 341 -357 400 -360 l51 -3 -2 -142
c-2 -129 -1 -143 15 -143 16 0 17 15 10 198 -3 108 -7 301 -7 427 -1 127 -5
239 -9 250 -6 14 -9 5 -10 -35 -2 -65 -1 -435 1 -468 2 -30 -5 -36 -28 -24
-18 10 -61 54 -274 276 -63 66 -147 152 -187 191 -64 63 -72 75 -66 98 3 15
12 27 18 27 7 0 106 -96 222 -212 195 -199 275 -275 233 -223 -63 78 -118 135
-131 135 -5 0 -8 4 -8 9 0 5 -33 40 -72 77 -214 201 -230 220 -216 243 8 13
20 20 31 17 9 -2 14 0 11 5 -8 13 24 42 38 33 7 -5 9 -2 6 7 -6 15 16 42 26
32 3 -4 6 -1 6 5 0 26 -19 16 -80 -41z m31 -279 c79 -84 206 -216 281 -292
163 -164 174 -185 71 -131 -33 17 -124 103 -293 275 -135 138 -246 255 -247
260 -2 5 5 6 14 3 12 -5 15 -2 10 9 -6 16 0 28 13 28 4 0 72 -69 151 -152z"/>
<path d="M1250 987 c57 -59 106 -107 108 -107 4 0 -14 23 -71 92 -12 15 -49
49 -82 74 -52 41 -46 33 45 -59z"/>
<path d="M1195 950 c5 -17 4 -21 -6 -15 -24 14 43 -55 106 -108 59 -51 50 -35
-32 50 -22 23 -46 43 -51 43 -6 0 -8 8 -5 19 3 10 -1 22 -7 26 -9 5 -10 1 -5
-15z"/>
<path d="M1170 833 c0 -15 180 -180 180 -165 0 12 -86 99 -141 143 -22 17 -39
27 -39 22z"/>
<path d="M846 735 c29 -33 129 -139 223 -235 94 -96 171 -178 171 -181 0 -10
40 -19 80 -18 34 0 33 1 -20 21 -48 18 -82 48 -280 247 -124 124 -202 199
-174 166z"/>
<path d="M910 556 c25 -26 72 -70 105 -98 l60 -51 -60 60 c-33 33 -80 77 -105
98 l-45 39 45 -48z"/>
<path d="M2048 420 c-130 -68 -268 -105 -417 -115 -47 -3 -87 -8 -90 -11 -13
-14 199 6 274 25 91 24 268 96 286 117 15 18 14 18 -53 -16z"/>
</g>
</svg>
